Patient4_TMGait_0pt4_02_left_02_EMG.mot
version=1
nRows=40
nColumns=33
inDegrees=no
endheader
time	1LAddLong	2LGlutMax	3LGlutMed	4LIliopsoas	5LSemiMemb	6LBicFemLong	7LRecFem	8LVastMed	9LVastLat	10LGasMed	11LTibAnt	12lTibPost	13LPeroneusLong	14LSol	15LExtDigLong	16LFlexDigLong	17RAddLong	18RGlutMax	19RGlutMed	20RIliopsoas	21RSemiMemb	22RBicFemLong	23RRecFem	24RVastMed	25RVastLat	26RGasMed	27RTibAnt	28RTibPost	29RPeroneusLong	30RSol	31RExtDigLong	32RFlexDigLong
2.54	-0.00824	0.37811	-0.010376	-0.005188	-0.009155	0.000763	0.3656	0.009308	-0.29831	-0.062866	0.050354	0.009308	0.00946	-0.10071	-0.17364	0.02243	0.00946	-0.52933	-0.34759	-0.097198	-0.11444	-0.14435	0.05249	-0.11551	-0.088196	0.012665	-0.17349	0.005646	-1.3026	0.13794	-0.000305	-0.010681
2.541	-0.010834	0.37567	-0.007172	-0.00351	-0.01709	0	0.39322	0.01297	-0.32318	-0.043335	0.12192	0.019531	-0.10925	-0.045013	-0.096741	0.024719	0.024414	-0.40054	0.65857	-0.13687	-0.094452	-0.17609	0.08316	-0.103	-0.072937	-0.005035	0.15625	-0.001526	-2.3705	0.093384	0.008392	0.002289
2.542	-0.002289	0.35095	0.002441	-0.020142	-0.02121	-0.003357	0.44235	0.016174	-0.34714	-0.02594	0.054932	0.015717	-0.10025	-0.13397	-0.13977	0.023041	0.023499	-0.28366	1.3313	-0.10452	-0.24323	-0.14755	-0.064545	-0.007629	-0.009308	0.011444	0.019226	-0.001373	-0.066833	-0.13855	-0.002441	0.002594
2.543	0.002899	0.3157	-0.030823	-0.018921	-0.017548	-0.003052	0.4216	0.013733	-0.34378	-0.04303	0.015259	0.022278	-0.056152	-0.17349	0.25192	0.022125	-0.016174	-0.40329	0.36163	0.03006	-0.27878	-0.14358	-0.2153	0.098724	0.11887	0.007324	0.002136	-0.009003	-0.006256	-0.066833	-0.001678	0.003815
2.544	-0.010223	0.30365	-0.018768	0.016174	0.009155	0.014801	0.44296	0.016022	-0.34943	-0.023499	0.020599	-0.005341	-0.045319	-0.11414	-0.13489	0.037079	-0.014954	-0.36194	-0.37109	0.063477	-0.14954	-0.1265	-0.17425	0.17242	0.14511	0.009613	-0.10254	-0.007629	0.28427	-0.10696	-0.00351	-0.000916
2.545	-0.001526	0.30563	-0.019531	-0.007782	0.00885	0.030823	0.47211	0.02121	-0.33981	-0.010071	0.015106	0.000458	-0.030365	-0.11108	-0.092621	0.03891	0.011139	-0.21484	0.046997	-0.008545	-0.000458	-0.24597	0.042419	0.075989	0.079651	0.019684	-0.033264	-0.011749	-0.32822	-0.077362	-0.001221	0.005646
2.546	-0.00473	0.31281	-0.023499	0.003967	-0.00412	0.046387	0.49591	-0.002289	-0.34485	0.028229	0.016327	0.016632	-0.023499	-0.035858	-0.010376	0.023804	0.02243	-0.081635	0.33661	-0.035095	0.1384	-0.31982	0.15366	-0.041809	0.39673	0.023651	-0.018311	-0.015564	0.1236	-0.096741	-0.001526	0.006714
2.547	-0.006104	0.3035	-0.015869	0.007935	-0.007629	0.057526	0.5069	0.02243	-0.32898	0.027161	0.074768	0.000763	-0.005341	0.00946	-0.007782	0.018311	-0.00824	0.05127	0.32288	-0.007477	0.1506	-0.12817	0.12314	0.032349	0.42618	-0.031891	0.046539	-0.016785	0.37293	0.018463	-0.001221	0.004425
2.548	-0.011749	0.26886	-0.007629	-0.005188	-0.006409	0.050201	0.50705	0.014954	-0.32288	0.007019	0.082397	0.020142	0.019531	0.044708	-0.069275	0.007935	-0.042572	0.12787	0.35309	-0.045624	0.20142	-0.19577	0.020447	0.18738	0.36346	-0.091858	0.072784	-0.026703	0.9552	0.13992	-0.00473	0.000916
2.549	0.001068	0.23651	0.011444	0.011597	-0.014801	0.060883	0.50797	0.013733	-0.2739	0.046692	0.11795	0.00885	0.009766	0.03479	-0.032349	0.00946	-0.033569	0.2121	0.25894	-0.11932	0.18829	-0.17532	0.085449	0.17716	0.28061	-0.15396	0.022736	-0.032043	0.4895	0.18173	-0.003815	0.007629
2.55	-0.000305	0.19043	-0.009613	0.009003	-0.00473	0.053101	0.52124	0.016174	-0.24155	0.05249	0.053558	-0.007019	-0.009308	-0.007324	0.2562	0.013428	0	0.26398	0.088959	-0.088043	0.095825	-0.069122	0.17563	0.057526	0.16342	-0.18143	-0.027771	-0.015564	0.12848	-0.018311	-0.004578	-0.00061
2.551	0.004272	0.15915	-0.002899	0.022583	-0.001221	0.039825	0.50323	0.013885	-0.19806	0.031433	0.002594	0.016937	0.060425	-0.019226	0.060272	0.017395	-0.000305	0.30853	0.13397	0.01236	0.039825	-0.00061	0.003204	0.093231	0.019684	-0.04303	-0.073242	-0.01358	0.42816	-0.14404	-0.002441	-0.001068
2.552	0.003204	0.11551	-0.009308	-0.005493	-0.004425	0.023499	0.49728	0.013275	-0.16159	0.010986	-0.049438	-0.013885	0.070801	0.016937	-0.14755	0.016632	-0.00824	0.35675	0.14969	0.1651	0.012207	-0.018158	-0.11673	0.1297	-0.19684	0.035553	0.094757	-0.027924	0.090332	-0.1355	-0.003815	-0.00885
2.553	-0.005951	0.10971	-0.00412	-0.011749	0.010986	0.023041	0.48416	0.018005	-0.1236	-0.016632	0.039673	0.039825	0.037384	0.008392	-0.29266	0.00885	0.023956	0.61218	0.49698	0.19318	-0.031433	-0.062103	-0.058136	0.034485	-0.57175	0.045929	0.1297	-0.004578	-1.4207	-0.005951	-0.002136	-0.015411
2.554	-0.00946	0.077209	-0.015106	0.010834	-0.002747	0.03479	0.48843	0.014801	-0.086975	-0.03479	0.13992	0.007172	0.045624	-0.083008	-0.052185	0.009003	0.017548	0.59906	0.36087	0.21835	-0.000305	-0.096741	0.25711	-0.005951	-0.54001	0.047607	0.046539	-0.017395	-0.7634	-0.091858	-0.009918	-0.009308
2.555	0.002441	0.079041	-0.008545	-0.002289	-0.026245	0.043945	0.48737	0.010681	-0.047913	-0.026398	0.17395	-0.002289	0.024719	-0.086212	-0.112	-0.003052	0.013733	0.55786	0.66483	0.075684	0.013275	-0.1091	0.42999	-0.12466	-0.30991	0.062408	-0.039063	0.05188	0.29205	-0.14496	-0.001526	-0.00824
2.556	0.00412	0.051575	0.023193	0.005341	-0.040894	0.041504	0.48675	0.011902	-0.019989	-0.017853	0.15533	-0.003204	-0.02594	-0.16617	-0.11169	0.005341	-0.003662	0.61996	1.122	-0.006256	0.00351	-0.05722	0.27115	-0.082397	-0.22125	0.013428	0.071106	0.11856	-1.3278	-0.14496	-0.003967	-0.01236
2.557	0.005188	0.020294	0.020294	0.013733	-0.11093	-0.009918	0.48935	0.01297	0.004883	-0.041809	0.12512	-0.001221	-0.023651	-0.1828	-0.050354	0	0.003204	0.62424	0.64545	0.036011	-0.011444	-0.027618	0.013275	-0.074921	-0.2243	0.058899	0.1294	-0.14648	-0.042572	0.18173	-0.00473	-0.003967
2.558	0.012665	0.028992	0.012054	0.002899	-0.054474	-0.075989	0.50613	0.014496	0.041656	-0.054626	-0.038147	0.000763	0.002899	-0.15564	0.15488	0.011749	0.013275	0.6221	0.15274	0.067291	-0.02121	-0.021667	-0.15182	-0.12024	-0.18341	0.053253	-0.006104	-0.17197	0.69977	-0.011292	-0.002441	-0.000458
2.559	0.009613	-0.000916	-0.029449	-0.010529	0.088196	-0.06897	0.55023	0.012207	0.053711	-0.06073	-0.11139	0.00824	0.063477	-0.098267	0.051727	0.012817	0.008087	0.6807	-0.12085	-0.024414	-0.031891	-0.015259	-0.1857	-0.26138	-0.1149	0.021515	0.061493	-0.06012	0.22034	-0.27527	-0.002747	-0.011292
2.56	0.005951	0.035095	-0.075684	0.016479	0.055389	-0.049133	0.53131	0.011444	0.073547	-0.033112	-0.20981	-0.010681	0.040436	-0.06134	0.12161	0.009308	0.017242	0.75928	-0.21057	-0.059204	-0.022583	-0.037689	-0.13153	-0.23789	-0.045166	0.019684	0.03952	-0.12695	0.39749	-0.31616	-0.00412	0.000916
2.561	0.005493	0.041351	-0.097809	-0.020142	0.025177	-0.032654	0.5127	0.01236	0.091248	-0.002289	-0.15289	-0.003662	0.005798	-0.059814	0.28198	0.009766	0.015106	0.82336	0.005341	-0.064545	-0.033417	-0.04715	-0.088806	-0.12466	0.030212	0.021515	0.029144	0.29511	0.31235	-0.1091	-0.003357	0.001984
2.562	0.003052	0.015717	-0.063782	0.010376	0.023041	-0.031128	0.5043	0.009918	0.11551	0.004883	-0.08606	-0.011749	-0.019531	-0.030212	0.028076	0.006409	0.032349	0.85159	0.80597	-0.070038	-0.041504	-0.042114	0.076904	0.028229	0.015564	0.014191	0.097656	0.16373	0.41199	0.38971	-0.003357	-0.000763
2.563	0.009918	-0.019073	-0.048676	-0.006561	0.003052	-0.040894	0.54642	0.011292	0.12772	-0.00885	0.035553	-0.013885	-0.02182	0.011749	-0.083618	0.006866	0.020142	0.71732	0.8194	-0.024414	-0.027771	-0.033112	0.076294	0.095062	0.02243	0.019073	0.052643	0.045319	-0.87921	0.21729	-0.005188	0.00824
2.564	0.009155	-0.018311	-0.042114	-0.007629	0.007172	-0.014496	0.56137	0.015106	0.13992	-0.041199	0.10498	-0.004883	0.017853	-0.026245	0.34409	0.008698	0.017548	0.57571	-0.10757	-0.058594	-0.03418	-0.019226	-0.022736	0.000153	-0.064697	0.014801	-0.058289	0.014496	-0.50522	-0.02655	-0.001984	-0.002594
2.565	0.019836	-0.01297	-0.034943	-0.002136	0.027924	0.022125	0.55496	0.014496	0.15732	-0.028076	0.12817	-0.007172	0.052795	-0.032654	0.04776	-0.001373	0.015564	0.59815	-0.22964	-0.17944	-0.039673	-0.048676	-0.17273	0.006409	-0.12543	0.007935	-0.082703	-0.00412	-0.20508	-0.24475	-0.007935	-0.000916
2.566	0.021362	-0.013275	-0.023193	-0.019989	0.01297	-0.002594	0.4953	0.018005	0.15518	-0.012817	0.13016	-0.009613	0.06012	-0.010834	-0.52307	-0.001373	0.021515	0.5452	-0.35873	-0.092621	-0.042725	-0.099945	-0.05249	0.016327	-0.06958	-0.000153	-0.034943	-0.018158	0.1062	-0.10529	-0.003357	-0.000305
2.567	0.016479	-0.005951	-0.038757	-0.011292	0.020447	0.016174	0.42328	0.015717	0.17471	-0.04364	-0.082397	-0.013428	0.086212	-0.007019	-0.24811	0.005798	0.010681	0.59876	-0.47943	0.019836	-0.049438	-0.084534	-0.042114	-0.035553	0.021362	-0.003815	-0.04425	-0.020905	1.7885	0.22781	-0.003204	0.00412
2.568	0.016632	-0.083618	-0.041046	0.010986	0.022583	0.033722	0.30563	0.018921	0.1741	-0.034027	-0.09903	-0.020447	0.11093	-0.00412	0.18204	0.006409	0.00824	0.34195	-0.47669	0.055542	-0.06073	-0.008545	0.007324	0.010223	0.063629	0.006256	-0.14755	-0.023499	1.221	0.17059	-0.00473	-0.001526
2.569	0.006256	-0.10025	-0.041809	0.011444	0.012207	0.022278	0.23361	0.015869	0.18036	0.01709	-0.092468	-0.008087	0.10834	-0.001678	-0.090942	-0.001831	0.001678	0.30777	-0.01709	0.070496	-0.055237	0.057068	-0.010834	0.042267	0.112	0.00824	-0.22156	-0.025482	-0.12711	-0.10681	-0.001373	-0.002747
2.57	0.00946	-0.063629	-0.020905	0.000153	-0.005493	0.010376	0.15503	0.014801	0.18143	0.023804	-0.121	0.014496	0.13016	-0.058441	-0.22003	0.002136	0.004578	0.35568	0.081329	0.11032	-0.033112	0.11902	-0.023499	0.073242	0.091858	-0.001831	0.048065	-0.029144	0.10284	-0.16434	-0.002747	-0.009766
2.571	0.007477	-0.064697	-0.044708	-0.002441	-0.015869	-0.031281	0.11215	0.008545	0.19699	0.012054	0.015564	-0.003662	0.064392	-0.050964	-0.20264	0.007324	-0.010529	0.39475	-0.041351	0.030823	-0.026398	0.16403	-0.054474	0.066376	0.065155	-0.001221	0.26138	-0.032196	-0.65048	0.0354	-0.002441	-0.019531
2.572	0.011902	-0.032196	-0.02182	-0.021667	0.015106	-0.041199	0.10223	-0.001984	0.20035	0.003815	0.12329	0.010376	-0.019226	0.005798	0.094604	0.000458	-0.011597	0.44434	-0.22217	-0.10132	-0.029602	0.1648	-0.034943	0.032196	0.059357	0.002136	0.29511	-0.021973	-2.2752	0.14053	-0.005493	-0.009766
2.573	0.014954	-0.04837	-0.03006	-0.007477	0.029907	-0.031586	0.092163	0.001068	0.20599	-0.050354	0.12238	-0.003357	-0.025482	0.037384	0.1886	-0.000153	0.006866	0.38681	-0.099335	-0.16586	-0.014648	0.17212	-0.006866	0.039215	0.043488	0.007629	0.12024	-0.009766	-0.63385	-0.046997	-0.001831	-0.005188
2.574	0.00885	-0.063477	-0.042725	-0.001526	0.065002	-0.031281	0.071869	0.002899	0.20508	-0.035706	0.10742	0.016022	0.059509	-0.001221	0.21545	0	0.000305	0.40131	0.50369	-0.13962	-0.037842	0.15396	-0.025177	0.071106	0.063934	0.007477	0.041046	-0.022736	0.20813	-0.044708	-0.001221	0.009308
2.575	0.019073	-0.078888	-0.037231	0.010376	0.012054	0.021515	0.067749	0.005341	0.20172	-0.044556	-0.10513	0.003967	0.14053	-0.02655	-0.11292	-0.002747	0.018463	0.40787	0.53238	-0.00946	-0.050049	-0.009766	0.012512	0.029297	0.065765	0.008545	-0.03479	-0.017242	0.52521	-0.061493	0.000916	-0.003204
2.576	0.013885	-0.054932	-0.025635	0.022583	-0.003357	0.003357	0.041962	0.006256	0.19623	-0.050659	-0.099945	0.003357	0.14771	-0.054321	-0.11139	-0.013123	0.017853	0.40009	0.28809	0.059204	0.027466	-0.092316	0.04364	0.044861	0.03418	0.006561	-0.035095	-0.018768	-0.04837	-0.002289	0.005646	-0.002747
2.577	0.016327	-0.039673	-0.020752	0.023499	-0.003967	0.008392	-0.000763	0.010986	0.18936	-0.019073	0.13214	-0.013275	0.058136	-0.031738	-0.21881	-0.014496	0.036163	0.4776	0.19898	0.075226	0.1088	-0.080109	0.061798	0.021973	0.001526	-0.001221	0.016937	-0.017853	-0.13351	-0.039978	-0.001984	-0.003662
2.578	0.014496	-0.033569	-0.03067	0.008392	0.00061	0.018768	-0.029755	0.005798	0.19959	0.00412	0.30655	-0.010834	-0.009766	-0.046539	-0.19547	-0.012665	0.060577	0.50491	0.23743	0.11124	0.036163	-0.032501	0.11688	-0.030365	-0.047302	0.012512	-0.003357	-0.029449	-0.19959	0.033569	-0.010834	-0.005493
2.579	0.015717	-0.00946	-0.031281	-0.004578	-0.003204	0.021515	-0.067749	0.014648	0.19348	-0.002289	0.22018	-0.006104	0.002747	-0.072784	0.25665	-0.007629	0.024109	0.51071	0.51971	0.081024	-0.007477	0.032959	0.13275	-0.0177	-0.10712	0.006561	0.017395	-0.034332	-0.61035	0.14297	-0.005951	-0.012817
